<?xml version="1.0" encoding="UTF-8"?>
<svg xmlns="http://www.w3.org/2000/svg" viewBox="0 0 512 512">
  <path fill="#563D7C" d="M0,0h512v512H0V0z"/>
  <path fill="#FFFFFF" d="M113.533,122.667h285.866v285.866H113.533V122.667z"/>
  <path fill="#563D7C" d="M186.092,255.92v-70.918h58.158c5.547,0,10.965,0.459,16.254,1.378c5.287,0.92,9.986,2.627,14.098,5.121c4.111,2.494,7.424,5.977,9.939,10.449c2.514,4.473,3.771,10.156,3.771,17.049c0,12.473-3.771,21.541-11.316,27.205c-7.545,5.664-17.131,8.496-28.76,8.496h-39.891V255.92H186.092z M225.982,227.16h24.201c3.592,0,7.043-0.23,10.354-0.689c3.311-0.459,6.23-1.377,8.744-2.756c2.516-1.377,4.523-3.312,6.025-5.807c1.5-2.494,2.25-5.805,2.25-9.939c0-3.592-0.689-6.562-2.066-8.908c-1.379-2.344-3.193-4.172-5.439-5.484c-2.25-1.311-4.846-2.23-7.797-2.756c-2.953-0.525-5.977-0.787-9.07-0.787h-27.203V227.16z M186.092,263.717h62.865c7.043,0,13.5,0.82,19.373,2.459c5.871,1.641,10.939,4.08,15.203,7.316c4.266,3.234,7.578,7.252,9.939,12.047c2.361,4.797,3.541,10.32,3.541,16.57c0,8.34-1.969,15.301-5.906,20.885c-3.938,5.584-9.844,9.875-17.719,12.871l28.76,52.926h-44.332l-23.512-48.219h-26.158v48.219h-22.055V263.717z M208.147,313.756h32.184c3.592,0,7.043-0.23,10.354-0.689c3.311-0.459,6.23-1.377,8.744-2.756c2.516-1.377,4.523-3.312,6.025-5.807c1.5-2.494,2.25-5.805,2.25-9.939c0-3.592-0.689-6.562-2.066-8.908c-1.379-2.344-3.193-4.172-5.439-5.484c-2.25-1.311-4.846-2.23-7.797-2.756c-2.953-0.525-5.977-0.787-9.07-0.787h-35.186V313.756z"/>
</svg>
