<?xml version="1.0" encoding="UTF-8"?>
<svg xmlns="http://www.w3.org/2000/svg" viewBox="0 0 512 512">
  <rect width="512" height="512" rx="50" fill="#9B4F96"/>
  <path fill="#FFFFFF" d="M256,120c-74.399,0-136,61.601-136,136s61.601,136,136,136s136-61.601,136-136S330.399,120,256,120z M256,340c-46.5,0-84-37.5-84-84s37.5-84,84-84s84,37.5,84,84S302.5,340,256,340z"/>
  <path fill="#FFFFFF" d="M354,236h10v16h16v-16h10v16h10v10h-10v16h10v10h-10v16h-16v-16h-10v16h-10v-16h-10v-10h10v-16h-10v-10h10V236z M364,262h-10v16h10V262z"/>
</svg>
