<?xml version="1.0" encoding="UTF-8"?>
<svg xmlns="http://www.w3.org/2000/svg" viewBox="0 0 512 512">
  <path fill="#264DE4" d="M71.357,460.819L30.272,0h451.456l-41.129,460.746L255.724,512"/>
  <path fill="#2965F1" d="M405.388,431.408l35.148-393.73H256v435.146"/>
  <path fill="#EBEBEB" d="M124.46,208.59l5.065,56.517H256V208.59 M119.419,150.715l5.21,56.517H256v-56.517 M256,355.372l-.248.066-63.105-17.033-4.035-45.216h-56.786l7.915,88.804 115.001,31.933.258-.071"/>
  <path fill="#FFFFFF" d="M255.805,208.59v56.517h69.425l-6.542,73.064-62.883,16.973v58.7l115.621-32.045.85-9.536 13.256-148.496 1.38-15.177h-131.107 M255.805,150.715v56.517h135.83l1.124-12.632 2.574-28.235 1.248-15.65"/>
</svg>
