<?xml version="1.0" encoding="UTF-8"?>
<svg xmlns="http://www.w3.org/2000/svg" viewBox="0 0 512 512">
  <rect width="512" height="512" fill="#F7DF1E"/>
  <path d="M324.4,370.8c8.3,13.6,19.1,23.6,38.1,23.6c16,0,26.3-8,26.3-19.1c0-13.3-10.5-18-28.2-25.8l-9.7-4.2c-28-11.9-46.5-26.8-46.5-58.4c0-29.1,22.2-51.2,56.8-51.2c24.7,0,42.4,8.6,55.2,31.1l-30.2,19.4c-6.6-11.9-13.8-16.6-25-16.6c-11.4,0-18.6,7.2-18.6,16.6c0,11.6,7.2,16.3,23.8,23.6l9.7,4.2c33,14.1,51.5,28.5,51.5,60.9c0,34.9-27.4,54-64.3,54c-36,0-59.3-17.1-70.7-39.6L324.4,370.8zM214.4,373.6c6.1,10.8,11.6,20,25,20c12.7,0,20.8-5,20.8-24.4V237.3h38.9v132.1c0,40.3-23.6,58.6-58,58.6c-31.1,0-49.1-16.1-58.3-35.4L214.4,373.6z"/>
</svg>
