<?xml version="1.0" encoding="UTF-8"?>
<svg xmlns="http://www.w3.org/2000/svg" viewBox="0 0 512 512">
  <path fill="#00758F" d="M256,0C114.615,0,0,114.615,0,256s114.615,256,256,256s256-114.615,256-256S397.385,0,256,0z"/>
  <path fill="#FFFFFF" d="M256,80c-97.199,0-176,78.801-176,176s78.801,176,176,176s176-78.801,176-176S353.199,80,256,80z"/>
  <path fill="#00758F" d="M256,120c-74.399,0-136,61.601-136,136s61.601,136,136,136s136-61.601,136-136S330.399,120,256,120z M256,340c-46.5,0-84-37.5-84-84s37.5-84,84-84s84,37.5,84,84S302.5,340,256,340z"/>
  <path fill="#FFFFFF" d="M256,200c-30.9,0-56,25.1-56,56s25.1,56,56,56s56-25.1,56-56S286.9,200,256,200z"/>
</svg>
